<svg width="29" height="38" viewBox="0 0 29 38" fill="none" xmlns="http://www.w3.org/2000/svg">
<path d="M10.9844 20.7969H5.64062V30H2.625V7.25H10.1562C12.7188 7.25 14.6875 7.83333 16.0625 9C17.4479 10.1667 18.1406 11.8646 18.1406 14.0938C18.1406 15.5104 17.7552 16.7448 16.9844 17.7969C16.224 18.849 15.1615 19.6354 13.7969 20.1562L19.1406 29.8125V30H15.9219L10.9844 20.7969ZM5.64062 18.3438H10.25C11.7396 18.3438 12.9219 17.9583 13.7969 17.1875C14.6823 16.4167 15.125 15.3854 15.125 14.0938C15.125 12.6875 14.7031 11.6094 13.8594 10.8594C13.026 10.1094 11.8177 9.72917 10.2344 9.71875H5.64062V18.3438ZM21.9688 28.4844C21.9688 27.9844 22.1146 27.5677 22.4062 27.2344C22.7083 26.901 23.1562 26.7344 23.75 26.7344C24.3438 26.7344 24.7917 26.901 25.0938 27.2344C25.4062 27.5677 25.5625 27.9844 25.5625 28.4844C25.5625 28.9635 25.4062 29.3646 25.0938 29.6875C24.7917 30.0104 24.3438 30.1719 23.75 30.1719C23.1562 30.1719 22.7083 30.0104 22.4062 29.6875C22.1146 29.3646 21.9688 28.9635 21.9688 28.4844Z" fill="#6C5CFF"/>
</svg>
