<svg width="48" height="48" viewBox="0 0 48 48" fill="none" xmlns="http://www.w3.org/2000/svg">
<rect width="48" height="48" rx="3" fill="#161618"/>
<path d="M23.9844 25.7969H18.6406V35H15.625V12.25H23.1562C25.7188 12.25 27.6875 12.8333 29.0625 14C30.4479 15.1667 31.1406 16.8646 31.1406 19.0938C31.1406 20.5104 30.7552 21.7448 29.9844 22.7969C29.224 23.849 28.1615 24.6354 26.7969 25.1562L32.1406 34.8125V35H28.9219L23.9844 25.7969ZM18.6406 23.3438H23.25C24.7396 23.3438 25.9219 22.9583 26.7969 22.1875C27.6823 21.4167 28.125 20.3854 28.125 19.0938C28.125 17.6875 27.7031 16.6094 26.8594 15.8594C26.026 15.1094 24.8177 14.7292 23.2344 14.7188H18.6406V23.3438ZM34.9688 33.4844C34.9688 32.9844 35.1146 32.5677 35.4062 32.2344C35.7083 31.901 36.1562 31.7344 36.75 31.7344C37.3438 31.7344 37.7917 31.901 38.0938 32.2344C38.4062 32.5677 38.5625 32.9844 38.5625 33.4844C38.5625 33.9635 38.4062 34.3646 38.0938 34.6875C37.7917 35.0104 37.3438 35.1719 36.75 35.1719C36.1562 35.1719 35.7083 35.0104 35.4062 34.6875C35.1146 34.3646 34.9688 33.9635 34.9688 33.4844Z" fill="#6C5CFF"/>
</svg>
