<?xml version="1.0" standalone="no"?>
<!DOCTYPE svg PUBLIC "-//W3C//DTD SVG 20010904//EN"
 "http://www.w3.org/TR/2001/REC-SVG-20010904/DTD/svg10.dtd">
<svg version="1.0"
    xmlns="http://www.w3.org/2000/svg" width="752.000000pt" height="752.000000pt" viewBox="0 0 752.000000 752.000000" preserveAspectRatio="xMidYMid meet">
    <metadata>
Created by potrace 1.14, written by Peter Selinger 2001-2017
    </metadata>
    <g transform="translate(0.000000,752.000000) scale(0.100000,-0.100000)" fill="#000000" stroke="none">
        <path d="M1859 7516 c-2 -2 -26 -7 -53 -10 -134 -18 -318 -109 -435 -213 -92
-83 -234 -287 -214 -307 4 -3 2 -6 -4 -6 -12 0 -43 -102 -63 -210 -5 -25 -9
-1379 -9 -3010 0 -3143 -2 -3021 44 -3156 89 -264 294 -470 555 -557 111 -37
128 -39 340 -43 209 -3 270 5 403 51 204 71 402 253 496 457 47 101 88 289 83
378 -3 53 -1 535 3 538 2 2 0 15 -5 28 -6 14 -6 26 1 29 5 4 7 10 4 14 -2 5
-4 127 -4 272 0 145 0 274 0 286 -1 19 5 22 42 22 23 0 50 1 60 1 9 0 27 0 40
0 12 0 33 1 47 3 14 2 37 0 52 -4 15 -4 30 -4 33 1 3 5 18 5 34 0 15 -4 34 -4
41 0 7 4 24 4 39 0 14 -4 35 -4 46 0 11 4 24 5 29 2 13 -7 76 -8 76 -1 0 4 18
3 40 -1 22 -4 40 -4 40 1 0 4 13 4 29 -1 15 -4 34 -4 42 0 7 5 20 5 30 0 9 -5
18 -7 21 -5 3 3 60 7 129 10 68 3 132 8 142 11 21 7 21 6 -4 -58 -28 -69 -41
-112 -54 -171 -24 -109 -28 -147 -28 -252 0 -114 16 -252 34 -286 4 -8 9 -27
11 -42 2 -14 7 -29 11 -33 4 -4 7 -13 7 -20 0 -21 58 -138 146 -296 45 -81 85
-156 89 -167 3 -12 11 -21 16 -21 5 0 9 -4 9 -10 0 -5 23 -48 50 -96 28 -48
50 -89 50 -91 0 -5 61 -94 70 -103 3 -3 17 -21 31 -40 39 -52 100 -111 171
-167 213 -167 445 -244 722 -238 135 3 152 5 246 31 30 8 62 17 70 19 31 8
140 56 187 81 26 15 57 32 68 38 10 6 25 16 31 21 7 6 27 21 46 34 60 45 204
195 247 259 36 53 60 100 132 257 13 30 47 181 56 255 12 97 6 254 -13 340
-10 43 -46 163 -57 190 -5 14 -11 30 -13 37 -2 10 -37 75 -199 368 -15 28 -43
76 -61 108 -19 32 -34 60 -34 63 0 11 -88 144 -134 204 -58 73 -147 160 -203
198 -21 14 -41 29 -44 34 -3 5 -63 37 -132 72 l-126 62 30 18 c52 31 325 308
409 416 45 58 88 113 96 123 8 9 14 19 14 21 0 2 22 36 49 77 67 103 140 237
204 379 46 101 135 366 153 459 3 12 11 51 19 85 8 33 17 86 20 116 4 30 8 60
10 67 11 34 20 201 20 368 0 204 -6 291 -30 430 -3 17 -8 46 -11 65 -3 19 -9
51 -14 70 -5 19 -11 46 -14 60 -15 72 -82 292 -106 345 -5 11 -21 49 -36 85
-47 115 -139 293 -188 365 -12 17 -21 32 -21 35 0 10 -161 232 -202 279 -149
169 -315 327 -448 426 -22 16 -42 33 -45 36 -3 4 -57 40 -120 81 -293 189
-670 340 -985 393 -22 4 -51 9 -65 11 -14 3 -45 7 -70 10 -25 3 -61 8 -80 11
-40 7 -2134 16 -2141 9z m955 -478 c68 0 128 2 134 6 6 3 13 2 17 -4 4 -6 11
-8 16 -4 6 3 54 5 107 4 53 0 104 -1 112 -1 101 0 129 0 150 -2 14 -2 40 0 58
4 17 4 34 3 37 -1 3 -4 21 -4 40 0 19 4 51 4 70 0 19 -4 37 -4 40 0 3 5 18 5
34 0 15 -4 34 -4 42 0 7 5 16 7 21 4 4 -3 60 -7 125 -9 109 -3 160 -8 238 -21
42 -7 148 -26 160 -29 437 -103 827 -325 1124 -639 25 -27 53 -56 62 -65 51
-52 216 -279 251 -346 44 -84 57 -107 68 -119 6 -8 13 -24 15 -36 2 -12 9 -27
14 -34 10 -12 99 -234 106 -265 3 -9 16 -59 31 -111 14 -52 27 -104 29 -115 2
-11 6 -38 10 -60 3 -22 8 -53 11 -70 13 -76 18 -163 18 -325 0 -215 -12 -340
-50 -500 -9 -36 -17 -73 -19 -82 -26 -124 -222 -573 -257 -586 -4 -2 -8 -8 -8
-13 0 -14 -122 -187 -172 -244 -10 -11 -30 -33 -44 -50 -263 -297 -577 -510
-948 -640 -69 -25 -199 -63 -239 -71 -12 -2 -44 -8 -72 -14 -104 -20 -334 -45
-390 -41 -11 0 -123 1 -145 0 -8 0 -44 0 -80 0 -36 1 -73 1 -82 1 -10 0 -26 0
-35 0 -10 0 -74 0 -141 0 -68 0 -128 2 -133 6 -5 3 -9 1 -9 -4 0 -7 -76 -2
-93 6 -1 1 -19 -3 -40 -7 -22 -5 -39 -5 -43 0 -3 5 -10 7 -15 3 -5 -3 -44 -5
-87 -5 -72 1 -176 1 -204 0 -7 0 -42 0 -78 0 -36 1 -73 1 -82 1 -10 0 -24 0
-30 0 -7 1 -65 0 -128 0 -161 -2 -253 7 -318 30 -32 11 -65 22 -76 25 -10 2
-26 10 -35 18 -9 7 -29 19 -45 27 -65 33 -236 227 -236 268 0 5 -10 31 -21 58
-25 56 -32 100 -33 209 -1 96 6 143 29 210 31 92 79 169 150 240 110 112 257
182 399 191 39 2 80 5 91 7 11 2 34 1 52 -3 18 -4 34 -5 37 -2 3 3 29 4 58 4
29 -1 100 -1 158 -1 58 1 110 1 115 0 29 -2 121 -2 130 -1 6 2 14 2 20 0 5 -1
43 -1 85 0 41 1 80 1 85 1 50 -2 122 -2 130 -1 6 2 14 2 20 0 5 -1 43 -1 85 0
41 1 80 1 85 1 50 -2 122 -2 130 -1 6 2 14 2 20 0 5 -1 43 -1 85 0 86 2 78 2
153 -2 31 -2 57 -1 57 2 0 3 31 4 68 3 128 -3 288 36 417 100 172 86 325 234
411 397 16 30 31 57 34 60 3 3 6 10 7 15 1 6 11 36 23 68 46 129 65 308 47
442 -9 67 -45 201 -63 236 -7 15 -14 35 -14 44 0 8 -4 15 -10 15 -5 0 -10 4
-10 10 0 5 -21 43 -46 85 -54 88 -173 213 -260 273 -66 44 -206 115 -245 125
-13 3 -52 13 -87 21 -53 14 -153 28 -187 27 -5 0 -19 0 -30 -1 -55 -2 -131 -2
-220 0 -11 0 -44 2 -73 3 -28 1 -52 -1 -52 -4 0 -4 -17 -3 -37 0 -21 4 -47 6
-58 5 -27 -3 -67 -5 -85 -3 -8 0 -26 0 -40 0 -14 -1 -32 -1 -40 0 -14 1 -35 0
-97 -2 -16 -1 -37 -1 -48 -1 -11 0 -36 1 -55 1 -57 1 -73 1 -128 4 -28 1 -52
-1 -52 -4 0 -4 -17 -3 -37 0 -21 4 -47 6 -58 5 -11 -2 -32 -3 -47 -3 -16 -1
-40 -1 -55 -2 -27 -1 -35 -1 -98 0 -16 1 -37 1 -45 0 -8 0 -40 1 -70 1 -30 1
-59 1 -65 0 -5 -1 -21 -1 -35 -1 -14 1 -68 4 -120 6 -52 2 -104 5 -115 8 -217
55 -383 200 -465 407 -12 30 -25 73 -28 95 -7 55 -8 192 0 240 32 217 225 435
438 496 25 7 52 14 60 17 8 2 145 6 304 8 158 1 291 5 293 8 3 3 10 3 14 0 5
-3 65 -5 133 -6z m-1034 -1675 c70 -28 161 -54 235 -68 28 -5 197 -18 220 -17
41 2 56 3 100 3 28 0 57 0 65 0 8 0 41 -1 72 -2 55 -1 56 -2 48 -24 -5 -13 -6
-25 -4 -28 4 -4 5 -45 3 -227 0 -8 0 -58 0 -110 0 -52 0 -102 0 -110 0 -8 0
-67 0 -130 0 -63 0 -122 0 -130 -1 -8 0 -26 1 -40 1 -14 1 -55 0 -92 -1 -65
-2 -67 -28 -70 -15 -2 -44 0 -65 3 -20 4 -40 3 -42 -2 -3 -4 -19 -4 -35 1 -16
5 -32 5 -35 0 -3 -5 -18 -5 -33 -1 -15 5 -36 5 -47 1 -11 -4 -27 -4 -36 1 -9
5 -18 7 -20 4 -2 -2 -33 -6 -69 -9 -36 -3 -76 -8 -90 -11 -14 -3 -41 -8 -60
-11 -95 -16 -268 -87 -352 -146 -47 -33 -47 -32 -49 112 0 8 1 24 2 35 0 11 0
103 -1 203 -1 101 1 186 3 188 3 3 1 20 -3 39 -4 19 -5 36 -3 39 5 4 6 199 2
223 -1 4 -1 13 0 18 1 6 2 55 1 110 -1 55 -1 107 -1 115 0 8 0 68 0 132 l0
117 73 -43 c40 -23 107 -56 148 -73z m1415 -83 c23 3 50 3 60 0 10 -3 38 -3
62 0 23 4 43 4 43 1 0 -3 60 -5 133 -3 72 1 146 2 162 2 17 -1 54 -2 83 -3 28
-1 52 2 52 6 0 5 4 6 8 3 4 -2 28 -7 52 -10 110 -13 236 -78 303 -156 98 -115
141 -275 111 -417 -4 -21 -8 -40 -8 -43 -4 -22 -36 -85 -67 -130 -83 -125
-239 -210 -378 -206 -28 0 -51 -2 -51 -5 0 -4 -16 -3 -35 1 -19 4 -35 4 -35 0
0 -4 -15 -5 -33 0 -18 4 -43 3 -55 -1 -12 -5 -24 -4 -27 1 -3 5 -18 5 -35 0
-17 -5 -30 -5 -30 0 0 4 -15 5 -32 1 -18 -4 -46 -4 -63 -1 -16 4 -40 3 -52 -1
-12 -5 -25 -4 -27 0 -3 5 -20 5 -38 2 -18 -4 -48 -4 -66 0 -17 4 -35 3 -38 -2
-3 -5 -10 -7 -15 -3 -13 8 -97 9 -105 2 -3 -4 -16 -3 -28 1 -11 5 -25 9 -31 9
-14 1 -22 42 -15 77 3 17 3 49 0 72 -4 24 -5 45 -3 47 4 4 6 282 2 302 -1 5
-1 14 0 19 2 14 2 290 0 301 -1 5 0 14 1 19 1 6 1 34 0 62 l-1 53 51 -1 c28
-1 53 1 56 4 3 3 15 2 26 -2 12 -4 40 -5 63 -1z m-1410 -3119 c44 -18 87 -34
95 -36 8 -2 35 -8 60 -14 77 -17 190 -33 235 -32 57 1 107 2 144 1 24 0 46 1
48 3 2 3 20 1 39 -3 19 -4 36 -4 39 1 3 4 17 4 30 -1 14 -5 25 -6 25 -3 0 4 5
2 10 -3 7 -7 10 -206 10 -595 -1 -668 -1 -678 -25 -739 -23 -57 -84 -141 -128
-174 -56 -43 -143 -77 -205 -81 -78 -5 -126 -7 -132 -6 -3 1 -39 3 -80 5 -115
4 -188 34 -266 111 -66 64 -110 146 -119 223 -5 40 -7 664 -2 669 3 2 1 19 -3
38 -4 19 -5 36 -3 39 5 4 6 199 2 223 -1 4 -1 13 0 18 1 6 2 55 1 110 -1 55
-1 107 -1 115 0 8 0 68 0 132 l0 117 73 -43 c40 -23 109 -57 153 -75z m3400
75 c17 -4 35 -9 40 -10 46 -12 167 -72 192 -95 12 -12 24 -21 27 -21 8 0 70
-64 102 -105 27 -34 84 -131 202 -345 14 -25 45 -81 70 -125 109 -192 134
-270 134 -415 0 -357 -296 -648 -647 -634 -113 4 -129 7 -196 30 -67 23 -113
48 -181 98 -88 64 -145 142 -259 353 -21 39 -52 94 -69 123 -16 28 -30 53 -30
55 0 2 -22 41 -48 87 -112 194 -140 338 -100 518 54 240 237 427 475 484 60
14 234 15 288 2z"/>
    </g>
</svg>
