<svg width="100" height="100" viewBox="0 0 100 100" fill="none" xmlns="http://www.w3.org/2000/svg">
<g clip-path="url(#clip0)">
<path d="M39 8H29C24.5817 8 21 11.5817 21 16V88C21 92.4183 24.5817 96 29 96H31C35.4183 96 39 92.4183 39 88V70M39 46V30" stroke="black" stroke-width="6"/>
<path d="M62.0522 69.4019C56.7791 72.4463 55.0183 79.1653 57.9958 84.4227C58.7781 85.804 59.2304 86.6219 59.6865 87.4467L59.6867 87.447C60.1465 88.2783 60.6101 89.1167 61.4073 90.5242C64.415 95.8351 71.1746 97.6214 76.4282 94.5882C81.7012 91.5438 83.462 84.8248 80.4846 79.5675C79.7022 78.186 79.2499 77.3681 78.7937 76.5433L78.7937 76.5432C78.3339 75.7118 77.8702 74.8735 77.0731 73.4659C74.0653 68.1551 67.3057 66.3688 62.0522 69.4019Z" stroke="black" stroke-width="6"/>
<path d="M39.0588 8L32 8C25.9249 8 21 12.9249 21 19C21 25.0751 25.9249 30 32 30L39.0588 30L51.9412 30C56.9118 30 60.9412 34.0294 60.9412 39C60.9412 43.9706 56.9117 48 51.9412 48L32 48C25.9249 48 21 52.9249 21 59C21 65.0751 25.9249 70 32 70H39.0588H51C68.1208 70 82 56.1208 82 39C82 21.8792 68.1208 8 51 8L39.0588 8Z" stroke="black" stroke-width="6"/>
</g>
<defs>
<clipPath id="clip0">
<rect width="100" height="100" fill="white"/>
</clipPath>
</defs>
</svg>
