<svg version="1" xmlns="http://www.w3.org/2000/svg" width="933.333" height="933.333" viewBox="0 0 700.000000 700.000000"><path d="M228.3 179.3c-.7 1.2-.6 329.8.2 330.5.4.4 10.3.7 22 .7h21.3l.1-66v-67.1c.1-.8 11.2-1.1 39-1.1l38.8-.1 10.3 19.2c5.7 10.5 11.9 22 13.8 25.6 5.2 9.8 10.1 18.9 13.2 24.5 1.5 2.7 5.5 10.4 9 17 3.4 6.6 6.6 12.4 7 13 .4.5 3.3 5.9 6.5 12 8.5 16.3 11.7 21.9 12.6 22.5.6.4 43.7.5 46.2.1.4 0 .7-.5.7-1s-12.5-23.6-27.8-51.2c-15.3-27.7-29.6-53.6-31.7-57.4-2.1-3.9-4.3-7.9-5-9-.7-1.1-2.6-4.5-4.2-7.5s-4.4-8-6.2-11.2l-3.2-5.6 9.9-4.9c20-10.1 33.8-23.1 43.4-41.3 2.7-5.2 5.3-11.8 6.3-16 0-.3.4-1.4.8-2.5 1.4-4.3 1.9-8.4 2.4-20.1 1.8-41.1-14.5-72.6-46.3-89.1-11.6-6.1-28.7-11.4-40.9-12.7-2.8-.3-7.2-.9-10-1.2-7.2-1-127.6-1.1-128.2-.1zm124.2 36.1c19.2 2.6 31 8 41.8 18.9 5.6 5.6 11.9 16.5 13.3 22.8 1.7 8.4 2.1 11.5 2.3 18.5.8 30.1-15.4 52.9-43.3 60.9-6.7 2-6.4 1.9-13.1 3-6.5 1.1-80.5 1.3-81.2.2-.6-1.1-.7-123.3 0-124.4.6-1 72.9-.9 80.2.1zM524 465.1c-9.3 4.2-13.3 10.5-13.6 21.8-.6 16.2 8 25.2 24.4 25.7 12.5.4 20.6-3.9 25-13.4 3.2-7 3.3-15 .2-21.8-4.4-10-10.4-13.7-23-14.1-6.8-.2-9.4.2-13 1.8z"/></svg>